Coordinates
version=1
nRows=42
nColumns=38
inDegrees=no

Units are S.I. units (second, meters, Newtons, ...)
If the header above contains a line with 'inDegrees', this indicates whether rotational values are in degrees (yes) or radians (no).

endheader
time	pelvis_tilt	pelvis_list	pelvis_rotation	pelvis_tx	pelvis_ty	pelvis_tz	hip_flexion_r	hip_adduction_r	hip_rotation_r	knee_angle_r	ankle_angle_r	subtalar_angle_r	mtp_angle_r	hip_flexion_l	hip_adduction_l	hip_rotation_l	knee_angle_l	ankle_angle_l	subtalar_angle_l	mtp_angle_l	lumbar_extension	lumbar_bending	lumbar_rotation	arm_flex_r	arm_add_r	arm_rot_r	elbow_flex_r	pro_sup_r	wrist_flex_r	wrist_dev_r	arm_flex_l	arm_add_l	arm_rot_l	elbow_flex_l	pro_sup_l	wrist_flex_l	wrist_dev_l
0.46	-0.276433	1.42706	-1.4349	0.81173	1.05674	0.939572	-0.261858	-0.0911133	-0.153498	0.681539	0.27753	0	0	0.166147	-0.0640975	0.628179	0	-0.698132	0	0	-0.201863	0.0693494	0.0945266	0.274818	-0.423497	0.0211527	1.20115	1.03161	0	0	0.192816	-0.261101	-0.0954102	1.22967	0.982753	0	0
0.47	-0.212112	1.4371	-1.50665	0.813409	1.04273	0.938696	-0.230983	-0.110786	-0.130649	0.741168	0.244554	0	0	0.169261	-0.051705	0.609551	0	-0.698132	0	0	-0.191248	0.0563481	0.100112	0.273993	-0.422804	0.0204202	1.20194	1.03323	0	0	0.196635	-0.26066	-0.0923539	1.22594	0.989022	0	0
0.48	-0.0794272	1.44223	-1.64756	0.814826	1.02885	0.938939	-0.201657	-0.136309	-0.103826	0.801635	0.205338	0	0	0.164705	-0.0321188	0.588899	0	-0.698132	0	0	-0.18534	0.0349008	0.107368	0.272855	-0.421867	0.0195832	1.20225	1.04006	0	0	0.202896	-0.262532	-0.086338	1.21915	0.9954	0	0
0.49	0.056298	1.44289	-1.79073	0.815894	1.01503	0.939531	-0.174408	-0.158383	-0.0748141	0.859038	0.164177	0	0	0.156335	-0.0136075	0.574693	0	-0.698132	0	0	-0.181609	0.0135715	0.114328	0.271895	-0.420632	0.0191237	1.20105	1.0431	0	0	0.208938	-0.26586	-0.0800651	1.21244	0.996537	0	0
0.5	0.163104	1.44014	-1.89796	0.816326	1.0019	0.940253	-0.152067	-0.167398	-0.0469272	0.911168	0.122203	0	0	0.14776	-0.00470575	0.557498	0	-0.698132	0	0	-0.181698	-0.00555095	0.116659	0.270825	-0.418718	0.0177539	1.20076	1.04234	0	0	0.215426	-0.269889	-0.0757812	1.20887	0.99434	0	0
0.51	0.239265	1.43666	-1.97685	0.817471	0.988551	0.940681	-0.131241	-0.175499	-0.0200374	0.959058	0.0875184	0	0	0.140243	0.00992044	0.537432	3.95626e-07	-0.698132	0	0	-0.181832	-0.0191645	0.119047	0.270047	-0.416977	0.0151295	1.20213	1.03913	0	0	0.218459	-0.273198	-0.0731173	1.20945	0.990382	0	0
0.52	0.308405	1.43469	-2.05102	0.819904	0.974736	0.940881	-0.107983	-0.189955	0.00446372	1.00277	0.0661108	0	0	0.128901	0.0310996	0.531625	0.0090585	-0.698132	0	0	-0.178738	-0.0283086	0.12018	0.270351	-0.416042	0.0125154	1.20553	1.03457	0	0	0.217239	-0.274898	-0.0724031	1.214	0.986221	0	0
0.53	0.397605	1.43324	-2.13655	0.822111	0.962186	0.941105	-0.0836575	-0.196482	0.0255373	1.04341	0.0502987	0	0	0.125143	0.0494034	0.528975	0.0145101	-0.698132	0	0	-0.175753	-0.0408085	0.115152	0.271937	-0.414993	0.011011	1.20873	1.03104	0	0	0.21805	-0.276668	-0.0726635	1.22105	0.983119	0	0
0.54	0.481156	1.43268	-2.21615	0.824261	0.950025	0.941509	-0.0579437	-0.198191	0.0485361	1.07911	0.0449717	0	0	0.12343	0.0677085	0.525532	0.0229633	-0.698132	0	0	-0.172113	-0.0517215	0.109585	0.274759	-0.414988	0.011407	1.21086	1.02889	0	0	0.217959	-0.278084	-0.0747836	1.2286	0.980037	0	0
0.55	0.551997	1.43343	-2.27981	0.825218	0.938741	0.942163	-0.0334117	-0.184949	0.072311	1.11103	0.0507665	0	0	0.127507	0.0771125	0.512315	0.0262468	-0.698132	0	0	-0.169622	-0.0619749	0.103848	0.277371	-0.415798	0.0136604	1.21329	1.0266	0	0	0.219379	-0.279784	-0.0774384	1.23543	0.975849	0	0
0.56	0.596049	1.43886	-2.32391	0.826738	0.926871	0.942886	-0.0044324	-0.173111	0.0991256	1.13798	0.076223	0	0	0.130984	0.0878785	0.501635	0.0442287	-0.698132	0	0	-0.1635	-0.0631413	0.103473	0.27914	-0.419016	0.0165741	1.2163	1.0222	0	0	0.217537	-0.279796	-0.0794547	1.24114	0.968589	0	0
0.57	0.608715	1.44653	-2.33621	0.828179	0.91505	0.944075	0.0221585	-0.155951	0.121291	1.15707	0.106917	0	0	0.132481	0.0927425	0.503095	0.062646	-0.698132	0	0	-0.158699	-0.0582315	0.103959	0.279745	-0.423648	0.0188668	1.22048	1.01733	0	0	0.216346	-0.278836	-0.0790311	1.24486	0.962456	0	0
0.58	0.608102	1.45637	-2.33424	0.829753	0.90321	0.945662	0.0482236	-0.137262	0.137404	1.1675	0.134326	0	0	0.131921	0.0934705	0.519395	0.0771036	-0.698132	0	0	-0.153105	-0.0492917	0.104124	0.279116	-0.429094	0.0212665	1.22528	1.00832	0	0	0.214944	-0.276874	-0.0774375	1.2467	0.958185	0	0
0.59	0.577983	1.46438	-2.30222	0.831385	0.891383	0.948019	0.0690436	-0.119282	0.147779	1.16786	0.153905	0	0	0.122783	0.0905387	0.547084	0.0815306	-0.698132	0	0	-0.151497	-0.0387606	0.103508	0.278984	-0.434084	0.022871	1.22938	1.00477	0	0	0.214071	-0.273632	-0.07725	1.24645	0.962305	0	0
0.6	0.532328	1.47017	-2.25447	0.832912	0.879588	0.950969	0.0863008	-0.103254	0.153976	1.16022	0.167726	0	0	0.105912	0.0846499	0.58006	0.0733025	-0.698132	0	0	-0.152429	-0.0289951	0.10216	0.279353	-0.437641	0.0237492	1.2313	1.00319	0	0	0.213308	-0.270217	-0.0781338	1.24463	0.966201	0	0
0.61	0.484109	1.47557	-2.20369	0.834338	0.867874	0.954096	0.10292	-0.0887727	0.156906	1.14706	0.179554	0	0	0.0855272	0.0762365	0.613093	0.0553241	-0.698132	0	0	-0.153132	-0.0198992	0.0998888	0.279635	-0.439981	0.0240753	1.23137	1.00252	0	0	0.21217	-0.267121	-0.0796685	1.24195	0.968373	0	0
0.62	0.441265	1.48234	-2.157	0.83576	0.856247	0.957017	0.121321	-0.0755908	0.155993	1.13021	0.191995	0	0	0.0661741	0.0665234	0.641936	0.033574	-0.698132	0	0	-0.151367	-0.0109145	0.0961363	0.279345	-0.441772	0.0245206	1.2309	1.0022	0	0	0.210396	-0.264569	-0.0813179	1.23929	0.970431	0	0
0.63	0.400756	1.4908	-2.11086	0.83724	0.844702	0.959537	0.141832	-0.063447	0.151175	1.11077	0.205308	0	0	0.0491425	0.0563283	0.664797	0.0110782	-0.698132	0	0	-0.146862	-0.00166902	0.0904189	0.278457	-0.443089	0.0248815	1.23124	1.00339	0	0	0.208043	-0.262593	-0.0829947	1.23737	0.972725	0	0
0.64	0.361462	1.50051	-2.06362	0.838873	0.833253	0.961613	0.164112	-0.0528196	0.142285	1.08925	0.217698	0	0	0.0362511	0.0480312	0.677153	1.75029e-07	-0.698132	0	0	-0.140092	0.00766072	0.0822585	0.277188	-0.444218	0.02558	1.23237	1.00446	0	0	0.205526	-0.261152	-0.0844734	1.236	0.974456	0	0
0.65	0.319856	1.51102	-2.0118	0.840666	0.821836	0.96328	0.187452	-0.0436439	0.130456	1.06575	0.228627	0	0	0.0268982	0.0419115	0.681701	0	-0.698132	0	0	-0.131794	0.0169837	0.0716883	0.275502	-0.445095	0.0258863	1.23401	1.00587	0	0	0.202801	-0.260104	-0.0859828	1.23518	0.97509	0	0
0.66	0.208533	1.5213	-1.89205	0.843364	0.810322	0.96454	0.211019	-0.0385457	0.116508	1.04055	0.240588	0	0	0.0200512	0.0427349	0.689469	0	-0.698132	0	0	-0.123915	0.0307245	0.0612019	0.274153	-0.447072	0.0256895	1.23644	1.00653	0	0	0.199345	-0.258251	-0.0874922	1.23469	0.974957	0	0
0.67	0.0705693	1.53002	-1.74096	0.845431	0.799202	0.965713	0.233077	-0.0308437	0.10146	1.01381	0.247682	0	0	0.0140999	0.0377243	0.692506	0	-0.698132	0	0	-0.117156	0.0415026	0.0482882	0.271867	-0.44857	0.0250291	1.23952	1.006	0	0	0.197755	-0.257344	-0.0882769	1.23465	0.973848	0	0
0.68	-0.1286	1.53569	-1.52859	0.847404	0.788155	0.966765	0.253396	-0.0241869	0.0858664	0.986265	0.253817	0	0	0.00664968	0.0326194	0.696083	0	-0.698132	0	0	-0.112319	0.0518845	0.0354914	0.269664	-0.450094	0.0240923	1.24288	1.0045	0	0	0.196815	-0.256898	-0.0881972	1.23531	0.972123	0	0
0.69	-0.354409	1.53751	-1.29004	0.84907	0.776967	0.967743	0.271727	-0.0184525	0.070752	0.958603	0.258457	0	0	-0.00271789	0.0277133	0.698132	0	-0.698132	0	0	-0.109623	0.0611733	0.0233384	0.267504	-0.45123	0.0228224	1.24607	1.00304	0	0	0.196671	-0.257043	-0.0872715	1.23652	0.970745	0	0
0.7	-0.532575	1.53599	-1.10111	0.850823	0.766092	0.968696	0.288167	-0.014069	0.0570349	0.931045	0.26272	0	0	-0.0144324	0.0237259	0.698132	0	-0.698132	0	0	-0.109684	0.0693601	0.013121	0.266523	-0.452318	0.0212742	1.24873	1.00204	0	0	0.197023	-0.257559	-0.0855345	1.23827	0.969213	0	0
0.71	-0.643019	1.53235	-0.981314	0.852021	0.754935	0.969607	0.303261	-0.0102418	0.045386	0.904059	0.266304	0	0	-0.0282189	0.0201731	0.698132	0	-0.698132	0	0	-0.111503	0.0758043	0.00436414	0.265854	-0.452654	0.0199781	1.25037	1.00124	0	0	0.198168	-0.258381	-0.08414	1.23965	0.966757	0	0
0.72	-0.704756	1.52858	-0.912401	0.853123	0.743971	0.970337	0.318745	-0.00724229	0.0360619	0.87807	0.269049	0	0	-0.04275	0.0175026	0.698132	0	-0.698132	0	0	-0.113886	0.0809186	-0.00235837	0.265922	-0.452797	0.0192786	1.25078	1.0002	0	0	0.199592	-0.259055	-0.0830071	1.24047	0.964615	0	0
0.73	-0.745401	1.52522	-0.866628	0.853959	0.733028	0.970853	0.334943	-0.00432795	0.0291658	0.852923	0.271454	0	0	-0.0574263	0.0151814	0.698132	0	-0.698132	0	0	-0.11594	0.0848889	-0.00715555	0.2664	-0.452426	0.0187885	1.24979	1.00017	0	0	0.201136	-0.259244	-0.082693	1.24065	0.963129	0	0
0.74	-0.786642	1.52292	-0.822097	0.854774	0.722293	0.971072	0.352928	-0.00152491	0.0234925	0.828894	0.274239	0	0	-0.0712138	0.0132416	0.698132	0	-0.698132	0	0	-0.116791	0.0882961	-0.010139	0.267012	-0.452034	0.0187708	1.2479	1.00088	0	0	0.202608	-0.258766	-0.0828543	1.24027	0.962267	0	0
0.75	-0.83872	1.52119	-0.767993	0.855074	0.711272	0.971031	0.372429	0.00197005	0.0189704	0.80593	0.277232	0	0	-0.0840251	0.0110253	0.698132	0	-0.698132	0	0	-0.116055	0.0913342	-0.0117284	0.267001	-0.451137	0.0186658	1.24529	1.00166	0	0	0.203654	-0.258408	-0.0831398	1.23969	0.962583	0	0
0.76	-0.896647	1.51981	-0.708317	0.855405	0.700331	0.97077	0.392533	0.00525038	0.0138763	0.783325	0.278987	0	0	-0.0959833	0.00877259	0.698132	0	-0.698132	0	0	-0.114424	0.0944789	-0.0127957	0.266783	-0.450091	0.0180236	1.24239	1.00251	0	0	0.204821	-0.257695	-0.0833203	1.23842	0.963508	0	0
0.77	-0.950478	1.51782	-0.652561	0.855699	0.689341	0.970431	0.411678	0.008225	0.00696344	0.759875	0.279229	0	0	-0.108007	0.00619638	0.698132	0	-0.698132	0	0	-0.113205	0.0982281	-0.0137614	0.266841	-0.449028	0.0169718	1.23918	1.00325	0	0	0.206528	-0.256483	-0.0834998	1.23635	0.9646	0	0
0.78	-0.994995	1.51521	-0.605745	0.856035	0.67838	0.970043	0.429494	0.0107065	-0.00236953	0.735273	0.27897	0	0	-0.120421	0.00322046	0.698132	0	-0.698132	0	0	-0.112661	0.102436	-0.0151221	0.267517	-0.44767	0.0157795	1.23536	1.00368	0	0	0.208487	-0.255159	-0.0837358	1.23381	0.966674	0	0
0.79	-1.03108	1.5124	-0.567546	0.856233	0.667345	0.969589	0.446287	0.01295	-0.0129787	0.710588	0.277978	0	0	-0.133153	3.99385e-05	0.698132	0	-0.698132	0	0	-0.11249	0.106576	-0.0166287	0.268837	-0.445705	0.0147421	1.23072	1.00504	0	0	0.210332	-0.253771	-0.0848	1.23124	0.970235	0	0
0.8	-1.05648	1.50943	-0.540047	0.856384	0.656267	0.969094	0.46167	0.0147924	-0.025002	0.685663	0.276125	0	0	-0.14642	-0.00318575	0.698132	0	-0.698132	0	0	-0.113028	0.110569	-0.0185958	0.270692	-0.443614	0.0147064	1.22584	1.00669	0	0	0.211947	-0.252016	-0.0873876	1.22902	0.974736	0	0
0.81	-1.06559	1.50591	-0.52865	0.856304	0.644966	0.968619	0.475012	0.0162413	-0.0387554	0.66022	0.273369	0	0	-0.160881	-0.00656598	0.698132	0	-0.698132	0	0	-0.11482	0.114302	-0.0211549	0.27298	-0.441437	0.0156794	1.22061	1.00757	0	0	0.213267	-0.249755	-0.0921078	1.2273	0.979761	0	0
0.82	-1.05594	1.50208	-0.535664	0.856398	0.633826	0.96813	0.486118	0.0168747	-0.0543563	0.634128	0.270006	0	0	-0.176688	-0.00970152	0.698132	0	-0.698132	0	0	-0.118648	0.117823	-0.0240988	0.275897	-0.439613	0.0171754	1.21558	1.00742	0	0	0.214612	-0.246922	-0.0982375	1.22622	0.985652	0	0
0.83	-1.03198	1.49782	-0.556742	0.856481	0.622662	0.967617	0.495154	0.01715	-0.0711935	0.60812	0.266814	0	0	-0.193884	-0.0127501	0.698132	0	-0.698132	0	0	-0.124201	0.121085	-0.0267091	0.278275	-0.438122	0.0180653	1.21185	1.00704	0	0	0.216316	-0.243755	-0.104646	1.22567	0.992028	0	0
0.84	-0.999689	1.49346	-0.586131	0.856534	0.611502	0.96702	0.502871	0.0169428	-0.0889507	0.582486	0.263866	0	0	-0.212018	-0.0154543	0.698132	0	-0.698132	0	0	-0.131052	0.123856	-0.0283951	0.280046	-0.436593	0.0171604	1.20922	1.00753	0	0	0.218997	-0.241068	-0.109345	1.22551	0.997679	0	0
0.85	-0.971389	1.48971	-0.611385	0.856527	0.60025	0.966231	0.510452	0.0160514	-0.1074	0.557474	0.260714	0	0	-0.229827	-0.0177001	0.698132	0	-0.698132	0	0	-0.13773	0.126084	-0.0291907	0.280612	-0.435229	0.0140352	1.20789	1.00909	0	0	0.22245	-0.238953	-0.111756	1.22557	1.00325	0	0
0.86	-0.946492	1.48623	-0.633637	0.85634	0.588659	0.965255	0.517219	0.0155388	-0.126039	0.53321	0.258314	0	0	-0.248222	-0.0201326	0.698029	0	-0.698132	0	0	-0.142684	0.127417	-0.0289356	0.279488	-0.433813	0.00951194	1.20708	1.0115	0	0	0.225518	-0.237186	-0.11303	1.22542	1.0095	0	0
0.87	-0.933515	1.48385	-0.64367	0.856299	0.577133	0.96403	0.524583	0.014469	-0.144619	0.50806	0.256248	0	0	-0.264762	-0.0220399	0.697903	0	-0.698132	0	0	-0.147079	0.129152	-0.0286834	0.278853	-0.433655	0.0055765	1.20651	1.01421	0	0	0.229002	-0.235115	-0.113741	1.22539	1.01605	0	0
